<svg xmlns="http://www.w3.org/2000/svg" viewBox="0 0 180 60" width="180" height="60">
  <defs>
    <!-- Gradients -->
    <linearGradient id="pinkGrad" x1="0%" y1="0%" x2="100%" y2="100%">
      <stop offset="0%" style="stop-color:#FF85A2"/>
      <stop offset="100%" style="stop-color:#FF69B4"/>
    </linearGradient>
    <linearGradient id="darkGrad" x1="0%" y1="0%" x2="0%" y2="100%">
      <stop offset="0%" style="stop-color:#2D3436"/>
      <stop offset="100%" style="stop-color:#1a1a1a"/>
    </linearGradient>
  </defs>

  <!-- Cat Icon -->
  <g transform="translate(5, 5)">
    <!-- Left Ear -->
    <path d="M 8 18 L 12 6 L 20 16 Z" fill="url(#pinkGrad)"/>
    <path d="M 11 16 L 13 10 L 17 15 Z" fill="#FF5A8A"/>
    
    <!-- Right Ear -->
    <path d="M 42 18 L 38 6 L 30 16 Z" fill="url(#pinkGrad)"/>
    <path d="M 39 16 L 37 10 L 33 15 Z" fill="#FF5A8A"/>
    
    <!-- Face -->
    <ellipse cx="25" cy="30" rx="18" ry="16" fill="url(#pinkGrad)"/>
    
    <!-- Eyes -->
    <ellipse cx="18" cy="28" rx="4" ry="5" fill="white"/>
    <ellipse cx="32" cy="28" rx="4" ry="5" fill="white"/>
    <circle cx="19" cy="29" r="2.5" fill="#2D3436"/>
    <circle cx="33" cy="29" r="2.5" fill="#2D3436"/>
    <circle cx="20" cy="27.5" r="1" fill="white"/>
    <circle cx="34" cy="27.5" r="1" fill="white"/>
    
    <!-- Nose -->
    <path d="M 25 34 L 23.5 32 L 26.5 32 Z" fill="#FF5A8A"/>
    
    <!-- Mouth -->
    <path d="M 22 36 Q 25 39 28 36" stroke="#FF5A8A" stroke-width="1.2" fill="none" stroke-linecap="round"/>
    
    <!-- Blush -->
    <ellipse cx="12" cy="34" rx="3" ry="1.8" fill="#FFB6C1" opacity="0.6"/>
    <ellipse cx="38" cy="34" rx="3" ry="1.8" fill="#FFB6C1" opacity="0.6"/>
  </g>

  <!-- Text: "Git" as path (bold rounded style) -->
  <g fill="url(#darkGrad)">
    <!-- G -->
    <path d="M58 30.5c0-6.4 4.8-11 11.2-11 4.2 0 7.4 2.1 9 5.2l-3.8 2c-1-1.8-2.8-3-5.2-3-4 0-6.8 3.2-6.8 6.8 0 3.6 2.8 6.8 6.8 6.8 2.8 0 4.8-1.4 5.6-3.4h-6.4v-3.6h10.8c0.1 0.6 0.2 1.2 0.2 1.8 0 5.8-4 10.2-10.2 10.2-6.4 0-11.2-4.6-11.2-11.8z"/>
    <!-- i -->
    <path d="M82 21.5c0-1.4 1.2-2.6 2.6-2.6s2.6 1.2 2.6 2.6-1.2 2.6-2.6 2.6-2.6-1.2-2.6-2.6zm0.4 5.5h4.4v14h-4.4v-14z"/>
    <!-- t -->
    <path d="M90 27h2.4v-4.5h4.4v4.5h3.2v3.4h-3.2v6.4c0 1.2 0.6 1.8 1.8 1.8 0.6 0 1.2-0.1 1.6-0.3v3.4c-0.8 0.4-1.8 0.6-3 0.6-3.2 0-4.8-1.8-4.8-4.8v-7.1h-2.4v-3.4z"/>
  </g>

  <!-- Text: "Chan" as path (bold rounded style) -->
  <g fill="url(#pinkGrad)">
    <!-- C -->
    <path d="M104 30.5c0-6.4 4.6-11 10.8-11 4 0 7.2 2.2 8.8 5.4l-3.8 2c-1-2-3-3.2-5-3.2-3.8 0-6.4 3-6.4 6.8s2.6 6.8 6.4 6.8c2 0 4-1.2 5-3.2l3.8 2c-1.6 3.2-4.8 5.4-8.8 5.4-6.2 0-10.8-4.6-10.8-11z"/>
    <!-- h -->
    <path d="M126 19h4.4v10.2c1.2-1.6 3-2.6 5.2-2.6 3.6 0 5.8 2.4 5.8 6.2v8.2h-4.4v-7.4c0-2-1-3.2-2.8-3.2-2 0-3.8 1.4-3.8 4v6.6h-4.4v-22z"/>
    <!-- a -->
    <path d="M144 34c0-4.4 3.2-7.4 7.4-7.4 2.2 0 4 0.8 5.2 2.2v-1.8h4.4v14h-4.4v-1.8c-1.2 1.4-3 2.2-5.2 2.2-4.2 0-7.4-3-7.4-7.4zm12.6 0c0-2.4-1.8-4-4-4s-4 1.6-4 4 1.8 4 4 4 4-1.6 4-4z"/>
    <!-- n -->
    <path d="M164 27h4.4v2.2c1.2-1.6 3-2.6 5.2-2.6 3.6 0 5.8 2.4 5.8 6.2v8.2h-4.4v-7.4c0-2-1-3.2-2.8-3.2-2 0-3.8 1.4-3.8 4v6.6h-4.4v-14z"/>
  </g>

  <!-- Sparkle Effects -->
  <text x="158" y="18" font-size="12" fill="#FFD93D">✦</text>
  <text x="52" y="15" font-size="8" fill="#FFD93D">✦</text>
</svg>